<mxfile host="app.diagrams.net" modified="2023-11-26T07:46:50.219Z" agent="Mozilla/5.0 (Windows NT 10.0; Win64; x64) AppleWebKit/537.36 (KHTML, like Gecko) Chrome/119.0.0.0 Safari/537.36" version="22.1.4" etag="6WWCoKXWOAxt8kPsx1as" type="github">
  <diagram name="PÃ¡gina-1" id="3QWVoUW5JnakuD_knu9m">
    <mxGraphModel>
      <root>
        <mxCell id="0" />
        <mxCell id="1" parent="0" />
      </root>
    </mxGraphModel>
  </diagram>
</mxfile>
